# xmcd
#
# Track frame offsets: 
#        150
#        15251
#        37442
#        58262
#        72788
#        91026
#        96255
#        112988
#        132084
#        146383
#        166208
#        184711
#        219091
#
# Disc length: 3117 seconds
#
# Revision: 0
# Processed by: cddbd v1.5.2PL0 Copyright (c) Steve Scherf et al.
# Submitted via: ExactAudioCopy v1.0b6
#
DISCID=a80c2b0d
DTITLE=Boney Fields - Changing for the future
DYEAR=2012
DGENRE=Funk
TTITLE0=Old scholl groove
TTITLE1=Here we stand
TTITLE2=All the things you do [ft Joëlle Kundé]
TTITLE3=Everybody knows [ft Lord Reign]
TTITLE4=Times are a changing [ft Lord Reign]
TTITLE5=Freezing (interlude)
TTITLE6=Easy rider [ft Lucky Peterson]
TTITLE7=Voodoo woman
TTITLE8=Bring back
TTITLE9=I like to live the love
TTITLE10=Show the world we care
TTITLE11=Freedom
TTITLE12=Hummm...
EXTD=
EXTT0=
EXTT1=
EXTT2=
EXTT3=
EXTT4=
EXTT5=
EXTT6=
EXTT7=
EXTT8=
EXTT9=
EXTT10=
EXTT11=
EXTT12=
PLAYORDER=
